<?xml version="1.0" encoding="UTF-8"?>
<svg id="Layer_1" xmlns="http://www.w3.org/2000/svg" version="1.1" viewBox="0 0 283 90">
  <!-- Generator: Adobe Illustrator 29.8.4, SVG Export Plug-In . SVG Version: 2.1.1 Build 6)  -->
  <defs>
    <style>
      .st0 {
        fill: #ff3000;
      }
    </style>
  </defs>
  <g id="_x31_.-Home">
    <g id="_x31_.1-01-Qubts-Home">
      <g id="Qubts">
        <path id="Path" class="st0" d="M258.4,84.3c4.6,0,8.7-.8,12.3-2.4,3.5-1.5,6.4-3.6,8.5-6.5,2.1-2.8,3.1-6.2,3.1-10s-1.5-8.5-4.3-11.8c-2.8-3.3-7.2-5.4-12.9-6.2l-8.4-1.1c-3.2-.5-5.5-1.1-6.8-2.1-1.4-.8-2.1-2.1-2.1-3.8s.9-3.5,2.6-4.8c1.7-1.3,4.1-1.8,6.9-1.8s4.9.5,6.7,1.5c1.7,1,2.8,2.5,3.4,4.3h13.8c-.6-3.2-1.8-6.2-3.9-8.9-2.1-2.6-4.8-4.8-8.2-6.4s-7.4-2.4-12.1-2.4-8.5.8-12.1,2.4-6.4,3.9-8.4,6.7c-2.1,2.8-3.1,6.3-3.1,10.1s1.4,8.5,4.1,11.4c2.7,3,6.9,4.8,12.5,5.6l8.5,1.1c3.4.5,5.8,1.3,7.2,2.4,1.4,1.1,2.1,2.5,2.1,4.2s-.9,3.5-2.6,4.7c-1.8,1.3-4.2,1.8-7.3,1.8s-5.7-.7-7.9-1.9c-2.2-1.3-3.4-2.8-3.8-4.6h-13.9c.8,5.5,3.4,9.9,8.1,13.2,4.6,3.4,10.5,5.1,17.8,5.1Z"/>
        <path id="Path1" data-name="Path" class="st0" d="M224.6,83.1h7.5v-12.5h-4.2c-2.4,0-4.2-.7-5.5-2.1-1.3-1.4-1.9-3.4-1.9-6v-26.2h11.6v-12.5h-11.6V3.4c-4.7,1.4-9.5,2.2-14.5,2.4v17.9h-9.6v12.5h9.6v27.8c0,6.3,1.6,10.9,4.9,14.1,3.2,3.3,7.7,4.9,13.7,4.9Z"/>
        <path id="Shape" class="st0" d="M139.5,82.6h13.9v-7.7c1.9,3,4.4,5.2,7.5,6.9,3.1,1.7,6.6,2.5,10.6,2.5s9.6-1.4,13.6-4c3.9-2.6,6.9-6.4,9.2-11.1,2.2-4.7,3.3-10,3.3-16.2s-1.1-11.6-3.3-16.3c-2.3-4.7-5.4-8.3-9.2-10.9-4-2.6-8.4-3.9-13.6-3.9s-7.2.8-10.1,2.3c-3,1.6-5.5,3.8-7.5,6.6V0h-14.4v82.6ZM168.1,71.4c-4.4,0-8-1.7-10.7-5-2.8-3.3-4.2-7.7-4.2-13.3s1.4-10,4.2-13.3c2.7-3.3,6.3-4.9,10.7-4.9s7.9,1.6,10.7,4.9c2.7,3.3,4.1,7.7,4.1,13.3s-1.4,10-4.1,13.3c-2.8,3.3-6.4,5-10.7,5Z"/>
        <path id="Path2" data-name="Path" class="st0" d="M119.9,58.4c0,4-1,7.1-3.2,9.3-2.2,2.4-5,3.5-8.4,3.5s-6.4-1.3-8.3-3.6c-1.9-2.4-3-5.5-3-9.2V23.7h-14.5v36.5c0,7.2,1.8,13,5.6,17.4,3.8,4.4,9,6.7,15.8,6.7s6.6-.7,9.5-2.3c2.8-1.5,5.1-3.5,7.1-6.3v6.8h13.9V23.7h-14.5v34.7Z"/>
        <path id="Shape1" data-name="Shape" class="st0" d="M40.1,84.4c6,0,11.6-1.1,16.7-3.5l7.1,9.1h15.3l-12.2-15.6c4.2-3.8,7.4-8.3,9.8-13.7,2.4-5.4,3.5-11.3,3.5-17.8s-1-11.5-3-16.6c-1.9-5-4.8-9.3-8.3-13.1-3.6-3.8-7.9-6.6-12.8-8.7s-10.4-3.1-16.2-3.1-11.2,1-16.1,3.1c-4.9,2.1-9.2,4.9-12.8,8.7-3.5,3.8-6.4,8.1-8.3,13.1-1.9,5.1-3,10.6-3,16.6s1,11.5,3,16.5c1.9,5.1,4.8,9.5,8.3,13.2,3.5,3.8,7.9,6.6,12.8,8.7,4.9,2.1,10.3,3.1,16.1,3.1ZM40.1,70.6c-4.7,0-8.9-1.1-12.5-3.5-3.8-2.3-6.6-5.5-8.7-9.7-2.2-4.2-3.2-9-3.2-14.5s1-10.3,3.2-14.5c2.1-4.1,4.9-7.3,8.7-9.7,3.6-2.3,7.9-3.4,12.5-3.4s9,1.1,12.8,3.4c3.6,2.4,6.5,5.6,8.7,9.7,2.1,4.2,3.1,9,3.1,14.5s-.6,7.9-1.7,11.2c-1.1,3.3-2.7,6.3-4.9,8.7l-7.4-9.6h-15.4l12.6,16.3c-2.4.8-5,1.1-7.7,1.1Z"/>
      </g>
    </g>
  </g>
</svg>